<?xml version="1.0" encoding="utf-8"?>
<!-- Generator: Adobe Illustrator 22.1.0, SVG Export Plug-In . SVG Version: 6.00 Build 0)  -->
<svg version="1.1" id="Слой_1" xmlns="http://www.w3.org/2000/svg" xmlns:xlink="http://www.w3.org/1999/xlink" x="0px" y="0px"
	 viewBox="0 0 45.4 45.4" style="enable-background:new 0 0 45.4 45.4;" xml:space="preserve">
<style type="text/css">
	.st0{display:none;fill:#EFE42F;}
	.st1{display:none;fill:#171717;}
	.st2{fill:#171717;}
	.st3{fill:url(#SVGID_1_);}
	.st4{fill:url(#SVGID_2_);}
	.st5{display:none;fill:url(#SVGID_3_);}
	.st6{fill:#EFE42F;}
	.st7{fill:url(#SVGID_4_);}
</style>
<path class="st0" d="M34.1,45.4H11.3C5.1,45.4,0,40.3,0,34V11.3C0,5.1,5.1,0,11.3,0h22.7c6.2,0,11.3,5.1,11.3,11.3V34
	C45.5,40.3,40.4,45.4,34.1,45.4z"/>
<image style="display:none;overflow:visible;" width="800" height="533" xlink:href="CB428335.jpg"  transform="matrix(8.906250e-02 0 0 8.347761e-02 -74 7.2532)">
</image>
<path class="st1" d="M45.8,44.7H23.7c-6,0-11-4.9-11-11V11.9c0-6,5-10.9,11-10.9h22.1c6,0,11,4.9,11,10.9v21.9
	C56.9,39.8,52,44.7,45.8,44.7z"/>
<g>
	<rect x="2.1" y="13.7" class="st2" width="41" height="19.5"/>
	<linearGradient id="SVGID_1_" gradientUnits="userSpaceOnUse" x1="22.625" y1="2.1398" x2="22.625" y2="19.0952">
		<stop  offset="0" style="stop-color:#CFCFCF"/>
		<stop  offset="2.884225e-02" style="stop-color:#BDBDBD"/>
		<stop  offset="0.1186" style="stop-color:#8C8C8C"/>
		<stop  offset="0.2105" style="stop-color:#616161"/>
		<stop  offset="0.303" style="stop-color:#3E3E3E"/>
		<stop  offset="0.3962" style="stop-color:#232323"/>
		<stop  offset="0.4904" style="stop-color:#0F0F0F"/>
		<stop  offset="0.5863" style="stop-color:#040404"/>
		<stop  offset="0.6865" style="stop-color:#000000"/>
	</linearGradient>
	<path class="st3" d="M43.1,17.6C36.4,19,26.6,20,15.2,17.9c-5-0.9-9.4-2.3-13-3.8c0-0.6,0-1.4,0.1-2.4C2.6,9,3.8,6.9,4.6,5.9
		c3-3.6,7.8-3.7,8.5-3.7c6.4,0,12.7,0,19.1,0c6,0,10.9,4.3,10.9,9.5C43.1,13.7,43.1,15.6,43.1,17.6z"/>
	<linearGradient id="SVGID_2_" gradientUnits="userSpaceOnUse" x1="22.6257" y1="43.6398" x2="22.6257" y2="32.9656">
		<stop  offset="4.864865e-02" style="stop-color:#8E8E8E"/>
		<stop  offset="6.039208e-02" style="stop-color:#868686"/>
		<stop  offset="0.1237" style="stop-color:#5D5D5D"/>
		<stop  offset="0.1887" style="stop-color:#3B3B3B"/>
		<stop  offset="0.2549" style="stop-color:#212121"/>
		<stop  offset="0.3227" style="stop-color:#0F0F0F"/>
		<stop  offset="0.3931" style="stop-color:#040404"/>
		<stop  offset="0.4703" style="stop-color:#000000"/>
	</linearGradient>
	<path class="st4" d="M32.5,43.6H12.8C6.9,43.6,2.1,38.9,2.1,33v0h41v0C43.1,38.9,38.3,43.6,32.5,43.6z"/>
</g>
<linearGradient id="SVGID_3_" gradientUnits="userSpaceOnUse" x1="25.0397" y1="-39.3395" x2="25.0397" y2="-33.4408" gradientTransform="matrix(-1 0 0 -1 47.4496 5.5576)">
	<stop  offset="0" style="stop-color:#717171"/>
	<stop  offset="5.342370e-02" style="stop-color:#565656"/>
	<stop  offset="0.1213" style="stop-color:#3B3B3B"/>
	<stop  offset="0.1993" style="stop-color:#252525"/>
	<stop  offset="0.2904" style="stop-color:#141414"/>
	<stop  offset="0.4031" style="stop-color:#090909"/>
	<stop  offset="0.5612" style="stop-color:#020202"/>
	<stop  offset="1" style="stop-color:#000000"/>
</linearGradient>
<path class="st5" d="M41.9,41.2c0.2,0.5-2,1.8-3.6,2.5c-2.2,0.9-3.9,1-5.6,1.1c-3.2,0.1-6.4,0.1-9.6,0.1c-4.5,0-7.6,0.3-11.4-0.1
	C11,44.7,9.1,44.5,7,43.5c-1.1-0.5-1.8-1-2.1-1.2c-1.8-1.3-3-3.1-2.8-3.2c0.1-0.1,0.8,0.6,1.7,1.2c2.3,1.6,4.9,1.9,7.2,2.1
	c9.5,0.8,15.3,1.2,24.4-0.4c2.9-0.5,5.4-1.1,7.4-1.6C42.5,40.6,42.2,40.9,41.9,41.2z"/>
<g>
	<path class="st6" d="M16.6,38.1h-1.1c-4.9,0-8.9-3.6-8.9-8V14.3c0-4.3,4-7.9,8.8-7.9h1.1L16.6,38.1L16.6,38.1z"/>
	<path class="st6" d="M38.9,29.1v1.1c0,4.9-3.6,8.9-8.1,8.9H14.6c-4.4,0-8-4-8-8.8v-1.1L38.9,29.1L38.9,29.1z"/>
	<linearGradient id="SVGID_4_" gradientUnits="userSpaceOnUse" x1="11.5615" y1="6.3443" x2="11.5615" y2="17.7296">
		<stop  offset="0" style="stop-color:#FFFFFF"/>
		<stop  offset="1" style="stop-color:#EFE63A"/>
	</linearGradient>
	<path class="st7" d="M16.5,17.7c-1.4,0-3-0.2-4.8-0.5c-2-0.4-3.7-1-5.1-1.6c0-0.1,0-0.2,0-0.4c0,0,0.1-0.6,0.1-1.1
		c0-4.3,3.4-7.7,7.7-7.7h2.1C16.5,10.1,16.5,13.9,16.5,17.7z"/>
</g>
</svg>
